<svg width="93" height="13" viewBox="0 0 93 13" fill="none" xmlns="http://www.w3.org/2000/svg">
<g clip-path="url(#clip0_39_2835)">
<path d="M35.6719 5.36271C37.0557 5.36271 37.1484 5.2965 37.294 5.2965C37.5456 5.2965 37.7707 5.4885 37.7707 5.77319C37.7707 6.17042 37.2808 7.45483 37.1351 7.74613C36.9299 8.14337 36.7379 8.31551 36.2744 8.31551C36.0228 8.31551 35.4468 8.18972 34.1955 8.18972H31.2229C29.8392 8.18972 29.7465 8.25592 29.6008 8.25592C29.3492 8.25592 29.1241 8.06393 29.1241 7.77924C29.1241 7.382 29.6141 6.0976 29.7597 5.80629C29.965 5.40905 30.157 5.23692 30.6204 5.23692C30.872 5.23692 31.448 5.36271 32.6993 5.36271H35.6719Z" fill="#F1B3C1"/>
<path d="M1.20495 4.31665C1.20495 1.85378 0 2.87335 0 1.88688C0 1.01296 1.23806 0.900406 1.87364 0.900406C2.20467 0.900406 2.52246 0.933509 2.86011 0.94675C3.1779 0.979853 3.50893 1.01296 3.82672 1.01296C4.33651 1.01296 4.8463 0.979853 5.36933 0.94675C5.87912 0.933509 6.40215 0.900406 6.91194 0.900406C8.70613 0.900406 10.7916 1.69488 10.7916 3.80686C10.7916 4.76023 10.3282 5.6805 9.44102 6.11084C9.29537 6.19029 9.18944 6.23663 9.18944 6.42863C9.18944 6.66698 9.39467 6.73318 9.58667 6.81263C10.6989 7.22311 11.1889 7.958 11.414 9.67274C11.606 11.1491 12.6388 10.262 12.6388 11.2286C12.6388 11.8311 11.9105 12.4666 10.1097 12.4666C7.56738 12.4666 7.24959 11.0035 6.75966 8.90475C6.58753 8.17648 6.31608 7.46145 5.44216 7.46145C5.09127 7.46145 4.96547 7.5078 4.96547 8.50751C4.96547 8.97096 4.99858 9.60654 5.07802 10.0501C5.20382 10.7784 6.01815 10.5599 6.01815 11.3213C6.01815 11.8907 5.62092 12.321 3.04549 12.321C2.27088 12.321 0.0198619 12.321 0.0198619 11.1624C0.0198619 10.3348 1.21158 10.9108 1.21158 8.84516V4.31665H1.20495ZM4.89265 5.01182C4.85954 5.4223 4.7801 5.77319 5.30313 5.77319C6.33594 5.77319 6.66698 5.20382 6.66698 4.21734C6.66698 3.43611 6.47498 2.64163 5.55471 2.64163C4.96547 2.64163 4.98533 3.00577 4.95223 3.50231L4.88603 5.01182H4.89265Z" fill="#F1B3C1"/>
<path d="M19.5309 1.00634C21.6561 1.00634 21.9606 0.688545 22.2188 0.688545C23.1259 0.688545 23.5032 2.24439 23.5032 2.94618C23.5032 3.46921 23.298 4.09155 22.6757 4.09155C21.4177 4.09155 22.4373 2.5688 19.4183 2.5688C17.6572 2.5688 17.8294 2.88659 17.8294 4.71389C17.8294 5.63416 17.8757 5.66726 18.8489 5.66726C20.0539 5.66726 19.1535 3.90617 20.279 3.90617C21.1993 3.90617 21.2655 5.70036 21.2655 6.3227C21.2655 6.97152 21.1529 8.87827 20.1995 8.87827C19.2462 8.87827 20.1995 7.20987 18.5974 7.20987C17.9287 7.20987 17.9485 7.81234 17.9485 8.32213C17.9485 10.6394 18.1074 10.5334 19.7758 10.5334C23.0332 10.5334 22.1129 8.29565 23.4172 8.29565C23.927 8.29565 24.1785 8.86502 24.1785 9.31523C24.1785 10.3944 23.3179 12.3342 22.6823 12.3342C22.5697 12.3342 22.3181 12.2879 21.9805 12.2415C21.6296 12.2084 21.186 12.1621 20.6431 12.1621H14.1086C13.0625 12.1621 13.0426 11.6854 13.0426 11.4802C13.0426 10.6062 14.1218 11.308 14.2344 9.61978C14.4264 6.72656 14.4396 7.01125 14.2807 4.13789C14.1682 1.70812 12.9632 2.95942 12.9632 1.83391C12.9632 0.867302 14.3006 1.0262 14.9494 1.0262H19.5242L19.5309 1.00634Z" fill="#F1B3C1"/>
<path d="M52.6605 4.7801C52.5215 4.90589 52.3758 5.0052 52.3758 5.21044C52.3758 5.41568 52.5479 5.48188 52.7068 5.56133C53.3557 5.81291 54.4878 6.66036 54.4878 7.9911C54.4878 9.58005 53.4219 11.5331 50.2307 11.5331C49.6878 11.5331 49.1979 11.5199 48.7212 11.4868C48.2445 11.4736 47.7679 11.4537 47.2713 11.4537C46.735 11.4537 46.1723 11.4669 45.636 11.4868C45.0931 11.5199 44.5568 11.5331 44.0007 11.5331C43.5108 11.5331 42.9547 11.2485 42.9547 10.6923C42.9547 9.70585 43.9875 10.7056 44.0802 8.07055L44.2589 3.49569C44.3516 1.09903 42.9878 2.19143 42.9878 1.09903C42.9878 0.496548 43.6366 0.211861 44.1331 0.211861C44.7224 0.211861 45.3116 0.244964 45.8942 0.258205C46.4834 0.291308 47.0727 0.324411 47.6553 0.324411C48.0393 0.324411 48.4034 0.291308 48.7676 0.258205C49.1317 0.244964 49.5157 0.211861 49.8798 0.211861C52.7863 0.211861 53.5344 1.59557 53.5344 2.82039C53.5344 3.54866 53.2299 4.32989 52.6605 4.79334V4.7801ZM48.0327 4.08493C48.0327 4.70727 47.9996 5.0052 48.4961 5.0052C49.4495 5.0052 49.6746 4.33651 49.6746 3.46259C49.6746 2.74756 49.4362 1.8604 48.5623 1.8604C47.9731 1.8604 48.0393 2.33708 48.0393 2.80053V4.08493H48.0327ZM48.0327 7.96462C48.0327 9.80516 48.3372 9.85812 48.8272 9.85812C49.7342 9.85812 50.052 9.23578 50.052 8.41482C50.052 7.44821 49.7673 6.58753 48.655 6.58753C48.1651 6.58753 48.0525 6.83911 48.0327 7.17676V7.97124V7.96462Z" fill="#F1B3C1"/>
<path d="M55.0903 5.84602C55.0903 2.47612 57.7782 0.0926895 61.2408 0.0926895C65.6237 0.0926895 67.312 3.95252 67.312 6.00491C67.312 9.42116 64.2929 11.6788 61.0488 11.6788C57.8047 11.6788 55.0903 9.22916 55.0903 5.84602ZM60.5059 2.46288C59.6188 2.46288 59.1686 3.38314 59.1686 4.16438C59.1686 5.51499 60.122 9.31523 61.8367 9.31523C62.8033 9.31523 63.2204 8.47441 63.2204 7.61373C63.2204 6.17043 62.3597 2.46288 60.4993 2.46288H60.5059Z" fill="#F1B3C1"/>
<path d="M76.4286 4.14452C76.6206 4.30341 77.1304 4.76686 77.4151 4.76686C77.8123 4.76686 77.8256 4.11803 77.8256 3.84659C77.8256 3.44935 77.8123 2.76743 77.6865 2.40329C77.4614 1.73461 76.6206 1.97295 76.6206 1.11889C76.6206 0.0993113 78.2426 0.152276 78.9113 0.152276C79.58 0.152276 81.3411 0.0728287 81.3411 1.17185C81.3411 2.07888 80.5003 1.74123 80.2288 2.47612C80.0236 3.04549 80.0236 4.03197 80.0236 4.63444V8.75248C80.0236 9.4675 80.1163 11.6457 79.057 11.6457C78.7392 11.6457 78.4678 11.4537 78.2294 11.2485L73.3169 6.84573C73.0918 6.64049 72.6813 6.2565 72.3503 6.2565C71.8604 6.2565 71.8405 7.28932 71.8405 7.62035C71.8405 8.06393 71.8604 8.65317 71.953 9.06364C72.1914 10.0832 73.0322 9.69923 73.0322 10.4805C73.0322 11.5464 71.3969 11.6391 70.6488 11.6391C69.9007 11.6391 68.2786 11.5464 68.2786 10.5136C68.2786 9.67274 69.1989 10.0038 69.3578 8.99082C69.4703 8.30889 69.5034 7.30918 69.5034 6.59415C69.5034 5.44878 69.5034 4.29017 69.3313 3.1448C69.0797 1.55585 67.9343 2.17819 67.9343 1.22482C67.9343 0.0993112 70.0794 0.158897 70.7944 0.158897C71.7809 0.158897 71.9531 0.225103 72.6681 0.860684L76.4352 4.16438L76.4286 4.14452Z" fill="#F1B3C1"/>
<path d="M88.3589 0.31779C90.4908 0.31779 90.7887 0 91.0469 0C91.9539 0 92.3313 1.55585 92.3313 2.25764C92.3313 2.78067 92.1261 3.403 91.5037 3.403C90.2524 3.403 91.2654 1.88026 88.2464 1.88026C86.4853 1.88026 86.6574 2.19805 86.6574 4.02534C86.6574 4.94561 86.7038 4.97871 87.677 4.97871C88.882 4.97871 87.9816 3.21763 89.1071 3.21763C90.0273 3.21763 90.0935 5.01182 90.0935 5.63416C90.0935 6.28298 89.981 8.18972 89.0276 8.18972C88.0742 8.18972 89.0276 6.52132 87.4254 6.52132C86.7567 6.52132 86.7766 7.1238 86.7766 7.63359C86.7766 9.95081 86.9355 9.84488 88.6039 9.84488C91.8612 9.84488 90.941 7.60711 92.2452 7.60711C92.755 7.60711 93.0066 8.17648 93.0066 8.62668C93.0066 9.70584 92.1459 11.6457 91.5104 11.6457C91.3978 11.6457 91.1462 11.5993 90.8152 11.553C90.4643 11.5199 90.0207 11.4736 89.4778 11.4736H82.9499C81.9038 11.4736 81.884 10.9969 81.884 10.7916C81.884 9.9177 82.9631 10.6195 83.0757 8.93123C83.2677 6.03802 83.2809 6.3227 83.122 3.44935C83.0095 1.01958 81.8045 2.27088 81.8045 1.14537C81.8045 0.178757 83.1419 0.337652 83.7907 0.337652H88.3656L88.3589 0.31779Z" fill="#F1B3C1"/>
</g>
<defs>
<clipPath id="clip0_39_2835">
<rect width="93" height="12.4666" fill="white"/>
</clipPath>
</defs>
</svg>
