<svg width="170" height="23" viewBox="0 0 170 23" fill="none" xmlns="http://www.w3.org/2000/svg">
<g clip-path="url(#clip0_509_2502)">
<path d="M88.998 8.60221C88.7147 8.83306 88.4443 9.01531 88.4443 9.39196C88.4443 9.76861 88.7791 9.89011 89.0881 10.0359C90.3499 10.4976 92.5517 12.0528 92.5517 14.495C92.5517 17.411 90.4787 20.9952 84.2725 20.9952C83.2167 20.9952 82.2639 20.9709 81.3368 20.9102C80.4098 20.8859 79.4827 20.8494 78.5299 20.8494C77.4741 20.8494 76.3925 20.8737 75.3495 20.9102C74.2937 20.9709 73.2508 20.9952 72.1692 20.9952C71.2164 20.9952 70.1348 20.4728 70.1348 19.4522C70.1348 17.6418 72.1435 19.4765 72.3237 14.6408L72.6585 6.2451C72.8388 1.84679 70.1863 3.85155 70.1863 1.84679C70.1863 0.74114 71.4482 0.218689 72.4139 0.218689C73.5598 0.218689 74.7058 0.279439 75.8388 0.303739C76.9848 0.364489 78.1307 0.425239 79.2638 0.425239C80.0106 0.425239 80.7188 0.364489 81.427 0.303739C82.1351 0.279439 82.8819 0.218689 83.5901 0.218689C89.2426 0.218689 90.6976 2.75804 90.6976 5.0058C90.6976 6.3423 90.1053 7.776 88.998 8.62651V8.60221ZM80.0106 7.3143C80.0106 8.45641 79.9462 9.00316 80.9119 9.00316C82.766 9.00316 83.2038 7.776 83.2038 6.1722C83.2038 4.86 82.7403 3.2319 81.0407 3.2319C79.8947 3.2319 80.0235 4.1067 80.0235 4.9572V7.3143H80.0106ZM80.0106 14.4342C80.0106 17.8119 80.6029 17.9091 81.5557 17.9091C83.3197 17.9091 83.9378 16.767 83.9378 15.2604C83.9378 13.4865 83.3841 11.907 81.2209 11.907C80.2681 11.907 80.0492 12.3687 80.0106 12.9884V14.4464V14.4342Z" fill="#F1B3C1"/>
<path d="M93.7234 10.5584C93.7234 4.37401 98.951 0 105.685 0C114.209 0 117.492 7.08347 117.492 10.85C117.492 17.1194 111.621 21.2625 105.312 21.2625C99.0025 21.2625 93.7234 16.767 93.7234 10.5584ZM104.269 4.34971C102.543 4.34971 101.668 6.03856 101.668 7.47227C101.668 9.95087 103.522 16.925 106.857 16.925C108.737 16.925 109.548 15.3819 109.548 13.8024C109.548 11.1537 107.874 4.34971 104.269 4.34971Z" fill="#F1B3C1"/>
<path d="M121.046 6.47596C121.046 1.95615 118.703 3.82725 118.703 2.0169C118.703 0.413093 121.11 0.206543 122.346 0.206543C122.99 0.206543 123.608 0.267293 124.265 0.291593C124.883 0.352343 125.527 0.413093 126.145 0.413093C127.136 0.413093 128.128 0.352343 129.145 0.291593C130.136 0.267293 131.154 0.206543 132.145 0.206543C135.634 0.206543 139.69 1.66455 139.69 5.5404C139.69 7.29001 138.789 8.97886 137.064 9.76861C136.78 9.91441 136.574 9.99946 136.574 10.3518C136.574 10.7892 136.973 10.9107 137.347 11.0565C139.51 11.8098 140.463 13.1585 140.901 16.3053C141.274 19.0148 143.283 17.3867 143.283 19.1606C143.283 20.2662 141.866 21.4326 138.364 21.4326C133.42 21.4326 132.802 18.7475 131.849 14.8959C131.514 13.5594 130.986 12.2472 129.287 12.2472C128.604 12.2472 128.359 12.3323 128.359 14.1669C128.359 15.0174 128.424 16.1838 128.578 16.9979C128.823 18.3344 130.407 17.9334 130.407 19.3307C130.407 20.3756 129.634 21.1653 124.625 21.1653C123.145 21.1653 118.754 21.1653 118.754 19.0391C118.754 17.5203 121.072 18.5774 121.072 14.7866V6.47596H121.046ZM128.218 7.75171C128.153 8.50501 127.999 9.14896 129.016 9.14896C131.025 9.14896 131.669 8.10406 131.669 6.29371C131.669 4.86 131.295 3.402 129.505 3.402C128.359 3.402 128.398 4.07025 128.334 4.9815L128.205 7.75171H128.218Z" fill="#F1B3C1"/>
<path d="M160.446 7.43579C160.82 7.72739 161.811 8.57789 162.365 8.57789C163.137 8.57789 163.163 7.38719 163.163 6.88904C163.163 6.16003 163.137 4.90858 162.88 4.24033C162.442 3.01318 160.807 3.45058 160.807 1.88322C160.807 0.0121208 163.961 0.109321 165.262 0.109321C166.562 0.109321 169.987 -0.0364793 169.987 1.98042C169.987 3.64498 168.352 3.02533 167.824 4.37398C167.425 5.41888 167.425 7.22924 167.425 8.33489V15.8922C167.425 17.2044 167.605 21.2018 165.545 21.2018C164.927 21.2018 164.399 20.8494 163.935 20.4728L154.382 12.393C153.944 12.0163 153.146 11.3116 152.502 11.3116C151.549 11.3116 151.51 13.207 151.51 13.8145C151.51 14.6286 151.536 15.71 151.729 16.4633C152.193 18.3344 153.828 17.6297 153.828 19.0634C153.828 21.0195 150.648 21.1896 149.193 21.1896C147.738 21.1896 144.583 21.0195 144.583 19.1241C144.583 17.5811 146.373 18.1886 146.682 16.3296C146.901 15.0782 146.965 13.2435 146.965 11.9313C146.965 9.82934 146.965 7.70309 146.63 5.60113C146.141 2.68513 143.914 3.82723 143.914 2.07763C143.914 0.0121208 148.085 0.121471 149.476 0.121471C151.394 0.121471 151.729 0.242971 153.12 1.40937L160.446 7.47224V7.43579Z" fill="#F1B3C1"/>
<path d="M2.34341 8.03119C2.34341 3.51138 0 5.38249 0 3.57213C0 1.96833 2.40779 1.76178 3.64387 1.76178C4.28766 1.76178 4.9057 1.82253 5.56237 1.84683C6.18041 1.90758 6.82421 1.96833 7.44225 1.96833C8.43369 1.96833 9.42513 1.90758 10.4423 1.84683C11.4338 1.82253 12.451 1.76178 13.4424 1.76178C16.9318 1.76178 20.9877 3.21978 20.9877 7.09564C20.9877 8.84524 20.0863 10.5341 18.361 11.3238C18.0777 11.4697 17.8717 11.5547 17.8717 11.9071C17.8717 12.3445 18.2708 12.466 18.6442 12.6118C20.8074 13.3651 21.7602 14.7137 22.198 17.8606C22.5714 20.57 24.58 18.9419 24.58 20.7158C24.58 21.8215 23.1637 22.9879 19.6614 22.9879C14.7171 22.9879 14.0991 20.3027 13.1463 16.4512C12.8115 15.1147 12.2836 13.8025 10.584 13.8025C9.90154 13.8025 9.6569 13.8875 9.6569 15.7222C9.6569 16.5727 9.72128 17.7391 9.87579 18.5531C10.1204 19.8896 11.7042 19.4887 11.7042 20.8859C11.7042 21.9308 10.9316 22.7206 5.9229 22.7206C4.41642 22.7327 0.0386276 22.7327 0.0386276 20.6065C0.0386276 19.0877 2.35628 20.1448 2.35628 16.354V8.04334L2.34341 8.03119ZM9.51526 9.3191C9.45088 10.0724 9.29637 10.7163 10.3136 10.7163C12.3222 10.7163 12.966 9.67145 12.966 7.86109C12.966 6.42739 12.5926 4.96939 10.8028 4.96939C9.6569 4.96939 9.69552 5.63764 9.63114 6.54889L9.50239 9.3191H9.51526Z" fill="#F1B3C1"/>
<path d="M37.9838 1.96833C42.1169 1.96833 42.7092 1.38513 43.2114 1.38513C44.9754 1.38513 45.7093 4.24039 45.7093 5.52829C45.7093 6.48814 45.3102 7.63025 44.0998 7.63025C41.6534 7.63025 43.6363 4.83574 37.7649 4.83574C34.3399 4.83574 34.6747 5.41894 34.6747 8.77235C34.6747 10.4612 34.7648 10.522 36.6576 10.522C39.001 10.522 37.2499 7.29004 39.4388 7.29004C41.2285 7.29004 41.3573 10.5827 41.3573 11.7248C41.3573 12.9155 41.1384 16.4147 39.2843 16.4147C37.4301 16.4147 39.2843 13.3529 36.1683 13.3529C34.8678 13.3529 34.9065 14.4586 34.9065 15.3941C34.9065 19.6466 35.2155 19.4522 38.4602 19.4522C44.7951 19.4522 43.0054 15.3455 45.5419 15.3455C46.5334 15.3455 47.0226 16.3904 47.0226 17.2166C47.0226 19.1971 45.3488 22.757 44.1127 22.757C43.8938 22.757 43.4045 22.672 42.7479 22.5869C42.0654 22.5262 41.2028 22.4411 40.1469 22.4411H27.4385C25.4041 22.4411 25.3654 21.5663 25.3654 21.1897C25.3654 19.5859 27.4642 20.8738 27.6831 17.7755C28.0565 12.466 28.0823 12.9884 27.7732 7.7153C27.5543 3.25624 25.2109 5.55259 25.2109 3.48709C25.2109 1.71318 27.8119 2.00478 29.0737 2.00478H37.9709L37.9838 1.96833Z" fill="#F1B3C1"/>
<path d="M61.2118 6.51239C61.7398 7.70309 61.302 8.55359 59.6024 9.16109C58.7011 9.45269 57.156 9.28259 56.7568 8.34704C56.5122 7.61804 56.2289 6.30584 58.2375 5.60114C59.1646 5.30953 60.7354 5.24878 61.199 6.50024L61.2118 6.51239ZM61.4307 17.253C61.4307 18.5045 60.7226 19.3793 58.8684 19.3793C57.9671 19.3793 56.6795 18.7718 56.6795 17.7755C56.6795 17.0465 56.8341 15.5277 58.9972 15.5277C59.95 15.5277 61.4436 15.9044 61.4436 17.253H61.4307Z" fill="#F1B3C1"/>
</g>
<defs>
<clipPath id="clip0_509_2502">
<rect width="170" height="23" fill="white"/>
</clipPath>
</defs>
</svg>
